<svg xmlns="http://www.w3.org/2000/svg" width="2500" height="2500" viewBox="0 0 192.756 192.756"><path fill-rule="evenodd" clip-rule="evenodd" fill="#a6a8aa" d="M143.027 30.229H54.151V173.58h114.097V54.977l-25.221-24.748z"/><path d="M137.26 24.696v18.578h18.822L137.26 24.696z" fill-rule="evenodd" clip-rule="evenodd" fill="#cc2229"/><path d="M133.357 23.077H48.951v141.726h110.521V47.175h-26.115V23.077z" fill-rule="evenodd" clip-rule="evenodd" fill="#f1f1f2"/><path d="M45.05 19.176v149.529h118.323V44.991l-26.156-25.815H45.05zm114.423 145.627H48.952V23.077h84.406v24.097h26.115v117.629zM137.26 24.696l18.822 18.578H137.26V24.696z" fill-rule="evenodd" clip-rule="evenodd"/><path d="M126.912 78.57V35.105h-77.96V78.57h77.96z" fill-rule="evenodd" clip-rule="evenodd" fill="#a6a8aa"/><path d="M14.384 69.718h104.02V33.962H14.384v35.756z" fill-rule="evenodd" clip-rule="evenodd" fill="#cc2229"/><path d="M10.484 30.061v43.558h111.821V30.061H10.484zm107.92 39.657H14.384V33.962h104.02v35.756z" fill-rule="evenodd" clip-rule="evenodd"/><path d="M35.228 63.725v-23.77h7.708c2.92 0 4.825.119 5.711.357 1.363.357 2.504 1.134 3.424 2.328.92 1.196 1.38 2.739 1.38 4.631 0 1.46-.265 2.688-.795 3.682-.528.995-1.202 1.777-2.018 2.345-.816.568-1.645.944-2.489 1.126-1.146.228-2.805.341-4.978.341h-3.129v8.959h-4.814v.001zm4.815-19.747v6.765h2.629c1.894 0 3.159-.125 3.797-.374.638-.25 1.139-.64 1.501-1.171.363-.531.544-1.149.544-1.854 0-.866-.255-1.582-.763-2.146-.508-.564-1.152-.916-1.932-1.057-.573-.109-1.725-.163-3.457-.163h-2.319zM57.343 39.955h8.746c1.973 0 3.477.151 4.512.455a7.933 7.933 0 0 1 3.572 2.189c.992 1.049 1.746 2.333 2.264 3.851.517 1.52.776 3.392.776 5.618 0 1.957-.243 3.644-.728 5.059-.593 1.73-1.438 3.13-2.538 4.199-.83.812-1.951 1.444-3.362 1.897-1.058.335-2.469.503-4.236.503h-9.005V39.955h-.001zm4.815 4.023v15.725h3.566c1.333 0 2.296-.076 2.889-.227.774-.194 1.417-.523 1.927-.988.51-.464.927-1.229 1.25-2.292.323-1.062.485-2.512.485-4.347 0-1.835-.162-3.243-.485-4.227-.323-.982-.774-1.75-1.355-2.299-.581-.551-1.318-.924-2.21-1.119-.667-.15-1.975-.226-3.921-.226h-2.146zM81.288 63.725v-23.77h16.274v4.023H86.103v5.606h9.873v4.023h-9.873v10.118h-4.815z" fill-rule="evenodd" clip-rule="evenodd" fill="#fff"/><path d="M88.025 125.172c-8.39 6.264-14.161 15.164-11.885 16.555l-1.988-1.002c-1.152-1.409 1.465-8.954 13.873-15.553z" fill-rule="evenodd" clip-rule="evenodd" fill="#cc2131" stroke="#cc2131" stroke-width=".52" stroke-miterlimit="2.613"/><path d="M149.559 121.662v.232h-.555v1.586h-.273v-1.586h-.555v-.232h1.383zm1.761 1.818l-.072-1.098c-.008-.141 0-.314-.006-.494h-.012c-.047.17-.1.363-.154.521l-.379 1.047h-.213l-.371-1.074a8.684 8.684 0 0 1-.131-.494h-.014c-.004.174 0 .33-.01.494l-.068 1.098h-.264l.141-1.818h.361l.355.986c.047.137.082.289.129.459h.008c.041-.17.082-.33.129-.465l.355-.98h.359l.137 1.818h-.28zM151.047 118.148c2.451-5.219-8.01-7.01-22.24-5.359-2.5-1.408-4.93-3.004-7.127-4.754-5.48-4.498-9.51-12.037-12.018-19.595 1.141-6.329 1.068-11.71 1.195-17.524-.541 2.65-.93 7.078-2.42 13.377-1.916-7.359-2.336-14.198-1.172-17.618.254-.75.873-1.629 1.146-1.822 1.07.533 2.363 1.847 2.652 4.597.965-5.079-1.518-4.9-2.213-4.9l-1.566-.012c-.865 0-1.641.693-2.018 2.103-1.285 4.791-.67 13.443 1.996 22.14-1.658 5.795-4.225 12.838-8.371 21.19-11.167 22.482-19.316 32.965-24.74 30.754l1.938.994c3.611 1.844 9.805-3.041 19.549-19.893 9.161-3.307 21.35-5.734 31.973-6.799 10.459 5.605 22.473 7.529 23.08 3.92-2.709 1.301-10.488-.508-18.352-4.312 10.77-.686 18.909.283 18.708 3.513zm-55.314 3.514a253.776 253.776 0 0 0 5.413-9.924c3.881-7.477 6.17-13.541 7.539-18.848 2.49 6.461 6.145 12.607 11.049 16.826 1.525 1.312 3.209 2.521 4.975 3.627-9.264 1.432-19.66 4.204-28.976 8.319z" fill-rule="evenodd" clip-rule="evenodd" fill="#cc2131"/><path d="M159.473 51.739v-4.565h-22.648v4.565h22.648z" fill-rule="evenodd" clip-rule="evenodd" fill="#a6a8aa"/></svg>